# xmcd
#
# Track frame offsets:
#	150
#	8460
#	22055
#	35992
#	44977
#	53510
#	60514
#	72957
#	81572
#	89162
#	97715
#	114462
#	129642
#	139135
#	151470
#	160380
#	165195
#	172872
#	180332
#	185225
#	191670
#
# Disc length: 2674 seconds
#
# Revision: 0
# Processed by: cddbd v1.4PL0 Copyright (c) Steve Scherf et al.
# Submitted via: audiograbber 1.81.03
#
DISCID=200a7015
DTITLE=NAT "KING" COLE - THE RARE RAINBOW BOX SET
DYEAR=1900
DGENRE=
TTITLE0=FOR SENTIMENTAL REASONS
TTITLE1=DON'T BLAME ME (FOR FALLING IN LOVE)
TTITLE2=THE BLUES IN THE NIGHT
TTITLE3=WHAT'LL I DO
TTITLE4=FOR ONCE IN YOUR LIVE
TTITLE5=WHEN I TAKE MY SUGER TO TEA
TTITLE6=I THOUGHT YOU OUGHT TO KNOW
TTITLE7=I'VE FOUND A NEW BABY
TTITLE8=SWEET GEORGIA SWEET
TTITLE9=ASK ANYONE WHO KNOWS
TTITLE10=OUTSKIRTS OF TOWN
TTITLE11=IT WASN'T ME (IT ISN'T ME)
TTITLE12=SOLID BLUES
TTITLE13=BABY (WE COULD HAVE A LOT OF FUN)
TTITLE14=BRING ME ANOTHER
TTITLE15=GIVE ME SOME
TTITLE16=CRAZY RHYTHMS
TTITLE17=MY NAUGHTY ANGELLINE
TTITLE18=YOU CAN GET IT
TTITLE19=THAT SUNDAY
TTITLE20=YOU'RE THE CREAM IN MY COFFEE
EXTD=
EXTT0=
EXTT1=
EXTT2=
EXTT3=
EXTT4=
EXTT5=
EXTT6=
EXTT7=
EXTT8=
EXTT9=
EXTT10=
EXTT11=
EXTT12=
EXTT13=
EXTT14=
EXTT15=
EXTT16=
EXTT17=
EXTT18=
EXTT19=
EXTT20=
PLAYORDER=
